<svg xmlns="http://www.w3.org/2000/svg" viewBox="0 0 1128 1089" role="img" aria-label="JINHONG favicon">
  <title>JINHONG favicon</title>
  <rect width="1128" height="1089" rx="120" fill="#FFFFFF"/>
  <g transform="translate(0.000000,1089.000000) scale(0.100000,-0.100000)" fill="#0BA1E2" stroke="none" fill-rule="evenodd">
  <path d="M350 10510 c0 -5 20 -46 44 -92 40 -76 132 -257 491 -963 299 -588
397 -780 497 -975 58 -113 166 -324 240 -470 242 -473 389 -762 470 -920 43
-85 83 -159 88 -164 10 -10 2336 -10 2352 0 7 4 -121 261 -587 1179 -159 312
-327 644 -664 1310 -81 160 -153 300 -161 311 -7 12 -10 29 -7 38 6 15 225 16
2802 16 1537 0 2795 3 2795 6 0 6 -248 503 -331 664 l-34 65 -3997 3 c-2545 1
-3998 -1 -3998 -8z"/>
  <path d="M10030 10345 c-36 -8 -76 -20 -90 -26 -14 -7 -41 -19 -60 -28 -158
-73 -312 -246 -368 -416 -49 -151 -47 -328 5 -470 73 -196 228 -357 413 -428
98 -38 151 -47 260 -47 188 0 357 68 485 195 86 85 131 153 176 265 l34 85 0
175 c-1 168 -2 178 -28 240 -93 219 -244 366 -449 437 -93 32 -278 41 -378 18z"/>
  <path d="M5063 9273 c-3 -7 -2 -19 1 -25 3 -7 68 -134 144 -283 142 -276 407
-799 802 -1580 122 -242 227 -446 233 -452 7 -10 253 -13 1168 -13 641 0 1160
4 1163 9 3 4 -168 353 -379 775 -212 421 -385 775 -385 786 0 20 8 20 770 20
l770 0 0 23 c0 13 -4 27 -9 33 -6 5 -63 115 -129 244 -165 325 -232 454 -241
462 -4 5 -884 9 -1955 10 -1552 2 -1950 0 -1953 -9z"/>
  <path d="M872 6732 c-9 -6 -12 -40 -10 -133 l3 -124 338 -3 c307 -2 337 -4
337 -19 0 -9 -168 -182 -372 -384 l-373 -367 -3 -122 c-3 -84 0 -125 8 -135
11 -13 103 -15 639 -15 474 0 630 3 639 12 8 8 12 52 12 130 l0 118 -383 0
c-270 0 -386 3 -394 11 -12 12 -6 39 10 50 5 4 173 170 373 370 l365 364 -3
125 -3 125 -585 2 c-322 2 -591 -1 -598 -5z"/>
  <path d="M3141 6726 c-8 -10 -11 -138 -11 -457 1 -496 1 -494 -67 -546 -72
-55 -162 -27 -203 64 -11 25 -20 61 -20 81 l0 35 -82 -7 c-166 -14 -287 -31
-300 -43 -9 -10 -8 -28 6 -85 45 -178 137 -279 299 -328 61 -19 96 -22 232
-23 169 0 217 8 314 55 46 22 145 114 168 155 29 52 51 147 62 268 16 181 15
817 -1 833 -18 18 -382 17 -397 -2z"/>
  <path d="M3983 6734 c-14 -6 -10 -41 12 -114 8 -25 21 -81 30 -125 8 -44 22
-102 30 -130 8 -27 16 -61 19 -75 3 -14 14 -65 26 -115 12 -49 25 -108 30
-130 4 -22 12 -56 18 -75 5 -19 17 -71 26 -115 10 -44 24 -102 31 -130 27 -99
45 -184 45 -207 0 -12 9 -38 20 -55 l20 -33 183 0 c179 0 184 1 205 23 12 13
22 31 22 41 0 9 7 41 15 69 9 29 23 77 32 107 8 30 21 73 28 95 7 22 21 69 30
105 9 36 23 81 30 100 7 19 20 64 30 100 28 109 38 140 50 157 11 15 14 13 30
-11 10 -15 21 -44 26 -64 13 -59 30 -124 44 -162 7 -19 21 -64 30 -100 9 -36
22 -76 27 -90 6 -14 14 -41 19 -60 4 -19 17 -66 29 -105 12 -38 25 -86 29
-105 4 -19 15 -50 25 -67 l17 -33 182 0 c202 0 227 6 227 58 0 15 5 44 11 66
6 21 14 59 19 85 4 25 13 60 18 76 6 17 18 66 27 110 9 44 23 103 30 130 12
47 20 80 61 268 8 39 22 95 29 122 8 28 22 86 30 130 15 74 34 147 56 219 6
21 5 32 -4 38 -6 4 -90 8 -185 8 l-172 0 -20 -32 c-11 -18 -20 -45 -20 -60 0
-28 -22 -146 -42 -228 -6 -25 -14 -65 -18 -90 -20 -120 -48 -253 -62 -289 -6
-18 -11 -21 -22 -12 -13 11 -19 28 -51 146 -9 33 -23 81 -31 108 -8 26 -20 68
-28 95 -8 26 -22 74 -31 107 -9 33 -21 74 -26 90 -6 17 -16 54 -23 82 -22 87
-14 84 -223 81 l-185 -3 -19 -50 c-10 -27 -19 -58 -19 -67 0 -10 -6 -32 -14
-50 -8 -18 -22 -62 -31 -98 -19 -73 -42 -150 -57 -195 -17 -53 -39 -139 -45
-175 -5 -37 -40 -83 -54 -74 -5 3 -9 17 -9 31 0 15 -4 40 -10 57 -9 31 -36
161 -50 246 -4 25 -12 65 -18 90 -19 78 -42 204 -42 231 0 53 -20 59 -206 58
-93 0 -174 -3 -181 -5z"/>
  <path d="M6281 6726 c-8 -9 -11 -54 -9 -132 l3 -119 338 -3 c296 -2 338 -4
335 -17 -2 -9 -171 -184 -377 -389 l-374 -374 0 -121 c0 -67 4 -126 10 -132 5
-5 255 -8 644 -7 l634 3 3 127 3 128 -388 2 c-356 3 -388 4 -391 20 -2 11 124
143 378 395 l380 378 0 121 c0 102 -3 123 -16 128 -9 3 -273 6 -589 6 -477 0
-574 -2 -584 -14z"/>
  <path d="M8547 6733 c-4 -3 -7 -209 -7 -457 0 -418 -2 -454 -19 -492 -22 -49
-68 -84 -119 -91 -30 -4 -45 1 -80 26 -46 34 -60 60 -71 131 l-6 45 -70 -1
c-64 -1 -240 -18 -291 -29 -30 -7 -36 -30 -19 -72 8 -19 15 -44 15 -54 0 -36
61 -148 105 -192 97 -99 199 -130 424 -130 160 0 220 11 308 56 46 24 143 107
154 131 5 11 13 28 18 36 17 29 39 96 50 155 17 93 16 926 -1 936 -15 10 -382
12 -391 2z"/>
  <path d="M9532 6728 c-17 -17 -18 -1268 0 -1286 15 -15 374 -17 383 -2 3 6 6
119 6 253 -1 133 3 248 7 255 7 9 63 12 248 10 l239 -3 2 -248 c1 -179 5 -252
14 -263 10 -12 44 -14 198 -12 l186 3 0 650 0 650 -195 0 -195 0 -3 -219 c-1
-141 -6 -224 -13 -233 -9 -10 -61 -13 -233 -13 -121 0 -228 5 -236 10 -12 8
-16 49 -20 232 l-5 223 -185 3 c-136 2 -189 -1 -198 -10z"/>
  <path d="M3115 5258 c-38 -5 -73 -13 -78 -17 -4 -4 18 -56 49 -117 31 -60 140
-273 241 -474 102 -201 251 -493 331 -650 79 -157 222 -438 317 -625 95 -187
237 -466 315 -620 139 -273 309 -608 650 -1280 92 -181 236 -465 320 -630 84
-165 209 -411 278 -547 68 -137 128 -248 132 -248 9 0 13 8 157 320 14 30 47
100 73 155 26 55 62 132 80 170 18 39 54 116 81 172 27 56 49 104 49 106 0 3
31 70 69 150 39 80 84 176 101 214 18 37 52 111 77 163 25 52 53 113 63 135
33 72 148 318 220 470 28 61 72 155 97 210 25 55 50 104 54 109 21 23 3 71
-89 253 -168 333 -370 730 -487 958 -62 121 -180 353 -262 515 -83 162 -219
430 -303 595 -85 165 -179 350 -209 410 l-57 110 -1099 1 c-649 1 -1129 -2
-1170 -8z"/>
  <path d="M7095 5260 c-4 -6 1 -23 11 -38 16 -25 151 -289 408 -799 54 -106
102 -195 107 -198 5 -3 22 22 38 57 16 35 56 122 91 193 34 72 77 162 95 200
18 39 61 127 94 198 34 70 61 130 61 132 0 3 27 60 60 127 33 66 60 125 60
130 0 12 -1017 10 -1025 -2z"/>
</g>
</svg>
